<svg width="374" height="300" viewBox="0 0 374 300" fill="none" xmlns="http://www.w3.org/2000/svg">
<path d="M320 70H363.5C367.918 70 371.5 73.5817 371.5 78V256C371.5 260.418 367.918 264 363.5 264H246" stroke="white" stroke-width="4"/>
<path d="M370.598 115.116H319" stroke="white" stroke-width="4"/>
<path d="M53.5 70H10C5.58172 70 2 73.5817 2 78V256C2 260.418 5.58172 264 10 264H127.5" stroke="white" stroke-width="4"/>
<path d="M2.90234 115.116H54.5" stroke="white" stroke-width="4"/>
<path opacity="0.16" d="M118.674 33H255.326C255.326 51.0818 274.5 70.2266 292 70.2266V115.901C292 148.723 282.26 180.327 263.831 207.297C245.404 234.266 219.656 254.6 189.371 266.1L187 267L184.629 266.1C154.345 254.6 128.597 234.266 110.169 207.297C91.7401 180.327 82 148.723 82 115.901V70.2266C97.9091 70.2266 118.674 52.1455 118.674 33Z" fill="#26CE7B"/>
<path d="M255 192.349C250.018 188.865 244.205 185.647 237.84 182.98C219.334 175.224 200.057 174.449 200.828 169.02C201.599 163.592 213.166 156.612 220.105 146.531C227.045 136.449 227.816 127.918 227.816 127.918C227.816 127.918 233.214 124.816 233.985 118.612C234.756 112.408 230.9 110.857 228.587 110.082C226.274 109.306 224.732 110.082 224.732 110.082C224.732 110.082 233.985 62 186.178 62C141.455 62 148.395 110.082 148.395 110.082C148.395 110.082 146.853 109.306 144.54 110.082C142.226 110.857 138.371 112.408 139.142 118.612C139.913 125.592 144.54 128.694 144.54 128.694C144.54 128.694 145.311 137.224 152.25 147.306C159.19 157.388 170.756 164.367 171.527 169.796C172.298 175.224 153.021 176 134.516 183.755C126.929 186.934 123.319 188.24 118 192.349" stroke="#26CE7B" stroke-width="4" stroke-miterlimit="10" stroke-linecap="round" stroke-linejoin="round"/>
<path d="M188.33 139.99C188.33 138.17 186.93 136.84 185.18 136.84C183.5 136.84 182.24 138.24 182.24 139.99C182.24 141.6 183.57 143 185.18 143C186.86 143 188.33 141.67 188.33 139.99ZM189.73 114.51C185.95 118.08 183.01 121.37 183.22 126.97L183.36 131.17C183.43 132.43 184.13 133.06 185.18 133.06C185.95 133.06 186.93 132.43 187 131.17L187.28 126.97C187.56 122.63 189.8 120.18 192.74 117.45C196.73 113.95 199.46 110.87 199.46 105.27C199.46 97.7102 193.09 93.1602 185.88 93.1602C182.38 93.1602 178.46 94.3502 175.66 96.5202C175.17 96.9402 174.75 97.5702 174.75 98.2702C174.75 99.8802 176.57 100.86 177.83 99.9502C180.21 98.2702 183.15 97.2202 185.95 97.2202C190.85 97.2202 194.98 100.3 194.98 105.41C194.98 109.54 192.46 111.78 189.73 114.51Z" fill="white"/>
<path d="M271.848 8.80547C271.848 31.3477 289.97 49.7264 312.301 49.7264H319V106.284C319 147.961 306.598 188.085 283.133 222.327C259.67 256.568 226.893 282.378 188.34 296.975L186 297.861L183.661 296.975C145.108 282.378 112.331 256.568 88.8666 222.327C65.4019 188.085 53 147.961 53 106.284V49.7264H59.6995C82.029 49.7264 100.152 31.3489 100.152 8.80547V2H271.848V8.80547Z" stroke="#26CE7B" stroke-width="4"/>
</svg>
