<svg width="426" height="309" viewBox="0 0 426 309" fill="none" xmlns="http://www.w3.org/2000/svg">
<path d="M365.071 120.5V10C365.071 5.58172 361.489 2 357.071 2H10C5.58172 2 2 5.58172 2 10V244C2 248.418 5.58172 252 10 252H238.5" stroke="white" stroke-width="4"/>
<path opacity="0.16" fill-rule="evenodd" clip-rule="evenodd" d="M346 73H23V232H236V227H236.234C236.079 226.341 236 225.674 236 225C236 212.534 263.071 202.385 298 202.011V142H298.058C298.02 141.668 298 141.335 298 141C298 130.26 318.096 121.239 346 118.708V73Z" fill="#26CE7B"/>
<path d="M2.51855 51.7925H362.958" stroke="white" stroke-width="4"/>
<circle cx="25.8591" cy="26.8962" r="5.18672" fill="#26CE7B"/>
<circle cx="49.718" cy="26.8962" r="5.18672" fill="#26CE7B"/>
<circle cx="73.5769" cy="26.8962" r="5.18672" fill="#26CE7B"/>
<path d="M138 136.5L169.5 168L239.5 98" stroke="#26CE7B" stroke-width="5"/>
<path d="M300 141C300 143.378 301.308 145.897 304.258 148.437C307.203 150.973 311.593 153.348 317.221 155.383C328.462 159.446 344.22 162 362 162C379.78 162 395.538 159.446 406.779 155.383C412.407 153.348 416.797 150.973 419.742 148.437C422.692 145.897 424 143.378 424 141C424 138.622 422.692 136.103 419.742 133.563C416.797 131.027 412.407 128.652 406.779 126.617C395.538 122.554 379.78 120 362 120C344.22 120 328.462 122.554 317.221 126.617C311.593 128.652 307.203 131.027 304.258 133.563C301.308 136.103 300 138.622 300 141Z" stroke="#26CE7B" stroke-width="4"/>
<path d="M423.848 139.696C423.848 144.855 423.848 163.773 423.848 169.294C423.848 181.082 396.135 190.638 361.949 190.638C327.763 190.638 300.05 181.082 300.05 169.294V139.696" stroke="#26CE7B" stroke-width="4"/>
<path d="M238 225C238 227.378 239.308 229.897 242.258 232.437C245.203 234.973 249.593 237.348 255.221 239.383C266.462 243.446 282.22 246 300 246C317.78 246 333.538 243.446 344.779 239.383C350.407 237.348 354.797 234.973 357.742 232.437C360.692 229.897 362 227.378 362 225C362 222.622 360.692 220.103 357.742 217.563C354.797 215.027 350.407 212.652 344.779 210.617C333.538 206.554 317.78 204 300 204C282.22 204 266.462 206.554 255.221 210.617C249.593 212.652 245.203 215.027 242.258 217.563C239.308 220.103 238 222.622 238 225Z" stroke="#26CE7B" stroke-width="4"/>
<path d="M361.949 224.291C361.949 229.449 361.949 248.368 361.949 253.889C361.949 265.677 334.236 275.233 300.05 275.233C265.865 275.233 238.152 265.677 238.152 253.889V224.291" stroke="#26CE7B" stroke-width="4"/>
<path d="M361.949 255.241C361.949 260.399 361.949 279.317 361.949 284.838C361.949 296.626 334.236 306.183 300.05 306.183C265.865 306.183 238.152 296.626 238.152 284.838V255.241" stroke="#26CE7B" stroke-width="4"/>
<path d="M300.05 205.722V170.646M361.949 221.588C396.135 221.588 423.848 212.031 423.848 200.243C423.848 194.722 423.848 175.804 423.848 170.646" stroke="#26CE7B" stroke-width="4"/>
<path d="M361.949 252.537C396.135 252.537 423.848 242.981 423.848 231.192C423.848 225.671 423.848 206.753 423.848 201.595" stroke="#26CE7B" stroke-width="4"/>
<path d="M361.949 283.486C396.135 283.486 423.848 273.93 423.848 262.142C423.848 256.621 423.848 237.703 423.848 232.544" stroke="#26CE7B" stroke-width="4"/>
</svg>
