<svg width="371" height="280" viewBox="0 0 371 280" fill="none" xmlns="http://www.w3.org/2000/svg">
<path opacity="0.16" d="M176.674 23H313.326C313.326 41.0818 332.5 60.2266 350 60.2266V105.901C350 138.723 340.26 170.327 321.831 197.297C303.404 224.266 277.656 244.6 247.371 256.1L245 257L242.629 256.1C212.345 244.6 186.597 224.266 168.169 197.297C149.74 170.327 140 138.723 140 105.901V60.2266C155.909 60.2266 176.674 42.1455 176.674 23Z" fill="#26CE7B"/>
<path d="M200.075 137.108L198.634 138.531L200.075 139.954L234.455 173.903L235.86 175.291L237.266 173.903L311.526 100.572L312.967 99.1489L311.526 97.7258L298.453 84.8168L297.048 83.4291L295.643 84.8168L235.86 143.852L215.958 124.199L214.553 122.811L213.148 124.199L200.075 137.108Z" stroke="#26CE7B" stroke-width="4"/>
<path d="M324.991 8.21844C324.991 29.3299 341.963 46.5446 362.88 46.5446H369V99.1982C369 138.07 357.433 175.493 335.548 207.43C313.664 239.366 283.094 263.438 247.137 277.052L245 277.861L242.864 277.052C206.907 263.438 176.337 239.366 154.452 207.43C132.567 175.493 121 138.07 121 99.1982V46.5446H127.12C148.036 46.5446 165.008 29.3311 165.008 8.21844V2H324.991V8.21844Z" stroke="#26CE7B" stroke-width="4"/>
<path d="M121.5 66H10C5.58172 66 2 69.5817 2 74V238.942C2 243.36 5.58172 246.942 10 246.942H191" stroke="white" stroke-width="4"/>
<path d="M2.39795 104.217L121 104.217" stroke="white" stroke-width="4"/>
<circle cx="20.313" cy="85.1087" r="3.98099" fill="white"/>
<circle cx="38.6255" cy="85.1087" r="3.98099" fill="white"/>
<circle cx="56.9375" cy="85.1087" r="3.98099" fill="white"/>
</svg>
